####
#
# OBJ File Generated by Meshlab
#
####
# Object sdRhombus.obj
#
# Vertices: 152
# Faces: 300
#
####
vn -0.995808 -0.221294 0.000010
v -0.799256 -0.902895 -0.025533
vn -0.702361 -0.155844 -0.723192
v -0.809413 -0.851780 -0.499465
vn -0.704346 -0.156358 0.721147
v -0.759723 -1.080735 0.499870
vn -0.995674 -0.221878 -0.002605
v -0.847004 -0.688028 -0.341417
vn -0.000388 -0.000241 -1.020100
v -0.596993 -0.538705 -0.499952
vn -0.704298 -0.155994 -0.721273
v -0.927155 -0.327059 -0.499950
vn -1.020100 -0.000089 -0.000306
v -0.999892 -0.000064 -0.038994
vn -0.764325 0.002137 -0.675579
v -0.999199 0.002969 -0.499927
vn -0.000019 0.000002 -1.020100
v -0.566573 0.145071 -0.499950
vn -0.704247 -0.156501 0.721212
v -0.926236 -0.331464 0.499863
vn -0.704045 0.156442 -0.721422
v -0.883313 0.524211 -0.499941
vn -0.765208 -0.000008 0.674582
v -0.999852 -0.000014 0.499863
vn -0.000180 -0.000051 1.020100
v -0.740912 -0.044838 0.499952
vn -0.704137 0.156433 0.721334
v -0.873024 0.570845 0.499952
vn -0.704058 0.156792 -0.721334
v -0.809913 0.854677 -0.499951
vn -0.995813 0.221268 -0.000080
v -0.863610 0.613328 -0.124466
vn -0.995785 0.221395 -0.000591
v -0.766577 1.049954 -0.242433
vn -0.703023 0.155962 -0.722522
v -0.746365 1.138377 -0.499943
vn -0.704272 -0.156421 -0.721206
v -0.376173 -2.806442 -0.499838
vn -0.995803 -0.221314 -0.000008
v -0.535121 -2.091520 0.128384
vn -0.995804 -0.221310 -0.000011
v -0.645222 -1.596050 -0.029055
vn -0.704097 -0.156492 -0.721361
v -0.505291 -2.225386 -0.499937
vn -0.704155 -0.156483 0.721306
v -0.566772 -1.948900 0.499869
vn -0.000021 -0.000006 -1.020100
v -0.121675 -1.634766 -0.499951
vn -0.704278 -0.156212 -0.721245
v -0.641645 -1.612081 -0.499909
vn -0.699776 -0.153993 -0.726088
v -0.708505 -1.304797 -0.499947
vn -0.995964 -0.220530 -0.005196
v -0.709983 -1.304627 -0.379563
vn -0.704112 -0.156475 0.721350
v -0.716695 -1.274318 0.499935
vn -0.000100 -0.000014 1.020100
v -0.450916 -0.686597 0.499950
vn -0.000003 0.000002 -1.020100
v -0.255702 0.483074 -0.499950
vn -0.704177 0.156271 -0.721331
v -0.686221 1.411227 -0.499926
vn -0.000049 0.000020 -1.020100
v -0.326792 1.506752 -0.499951
vn -0.995806 0.221300 0.000139
v -0.651256 1.568914 0.003147
vn -0.704145 0.156609 0.721289
v -0.746343 1.141004 0.499937
vn -0.704225 0.156757 -0.721178
v -0.586714 1.859281 -0.499891
vn -0.703708 0.156065 0.721833
v -0.618644 1.713909 0.499929
vn -0.704146 0.156761 0.721255
v -0.551898 2.015966 0.499876
vn -0.702345 0.156118 -0.723148
v -0.493397 2.274381 -0.499948
vn -0.995787 0.221384 -0.001068
v -0.492349 2.283982 -0.197532
vn -0.705259 0.156653 0.720190
v -0.458876 2.434530 0.499282
vn -0.704121 -0.156768 -0.721278
v -0.208518 -3.560395 -0.499774
vn -0.995806 -0.221300 -0.000081
v -0.305769 -3.123591 -0.090630
vn -0.704215 -0.156588 0.721225
v -0.378415 -2.796461 0.499773
vn -0.704124 -0.156597 0.721312
v -0.455115 -2.451425 0.499890
vn -0.000040 -0.000015 1.020100
v -0.075941 -1.312189 0.499950
vn -0.000002 0.000001 1.020100
v -0.003204 -0.357922 0.499950
vn 0.000002 -0.000001 1.020100
v -0.312361 0.386349 0.499950
vn -0.000004 0.000002 -1.020100
v 0.036000 0.916570 -0.499950
vn -0.000359 0.000322 1.020100
v -0.270945 2.019546 0.499966
vn -0.704233 0.156168 -0.721298
v -0.410760 2.650609 -0.499911
vn -0.995820 0.221238 0.000018
v -0.312108 3.095079 0.085871
vn -0.704007 0.156387 0.721471
v -0.336782 2.983531 0.499924
vn -0.995821 0.221236 -0.000100
v -0.219480 3.511882 -0.306219
vn -0.704280 0.156475 0.721186
v -0.214460 3.534437 0.499771
vn -0.703366 -0.159119 -0.721499
v -0.038857 -4.324696 -0.499825
vn -0.697168 -0.156400 -0.728079
v -0.016459 -4.419840 -0.499609
vn -0.586675 -0.566288 -0.612972
v -0.004337 -4.478961 -0.499680
vn 0.695861 -0.142789 -0.732116
v 0.015777 -4.422797 -0.499563
vn 0.443254 -0.702270 -0.592408
v 0.004121 -4.480958 -0.499769
vn 0.995770 -0.221438 -0.003390
v 0.047412 -4.286196 -0.366870
vn -0.716722 -0.725886 -0.001397
v -0.004530 -4.479167 -0.360446
vn 0.552491 -0.857530 0.000030
v 0.004125 -4.480989 0.000244
vn -0.691975 -0.171338 0.729669
v -0.027081 -4.377264 0.499823
vn -0.995813 -0.221272 0.000031
v -0.109411 -4.007215 0.085809
vn -0.717347 -0.725270 0.000650
v -0.004530 -4.479167 0.221911
vn -0.000243 -0.843062 0.574325
v -0.000351 -4.484653 0.497868
vn 0.730736 -0.711756 -0.005703
v 0.004126 -4.480989 0.388719
vn -0.995875 -0.220980 -0.002292
v -0.112919 -3.991416 -0.285100
vn 0.700420 -0.157675 -0.724676
v 0.075128 -4.158138 -0.499950
vn 0.711786 -0.160467 0.712892
v 0.065284 -4.205472 0.498878
vn -0.700921 -0.155255 -0.724713
v -0.112158 -3.988261 -0.499895
vn 0.704076 -0.156462 -0.721387
v 0.256962 -3.343171 -0.499920
vn 0.000122 -0.000140 1.020100
v -0.017711 -2.344468 0.499955
vn 0.000001 -0.000000 -1.020100
v -0.088094 -2.091016 -0.499950
vn 0.000022 0.000004 1.020100
v 0.341728 0.049449 0.499950
vn -0.000013 0.000006 1.020100
v -0.374271 0.882758 0.499952
vn 0.000039 0.000002 1.020100
v -0.011352 1.455655 0.499956
vn -0.000912 -0.000173 1.020100
v -0.210188 2.711102 0.499956
vn -0.704013 0.156645 -0.721410
v -0.134713 3.893302 -0.499857
vn 0.704462 0.156317 -0.721042
v 0.106390 4.020778 -0.499729
vn -0.995810 0.221285 -0.000005
v -0.100699 4.046401 -0.081959
vn -0.701926 0.158515 0.723033
v -0.079197 4.143172 0.499923
vn 0.703881 0.157024 0.721456
v 0.119901 3.959999 0.499916
vn -0.715221 0.727352 -0.004644
v -0.004530 4.479167 -0.393180
vn -0.672425 0.328269 -0.693317
v -0.005341 4.469353 -0.499941
vn 0.212072 0.815772 -0.574583
v 0.004148 4.480916 -0.499575
vn -0.716743 0.725868 -0.000063
v -0.004530 4.479168 0.083988
vn 0.552553 0.857490 0.000041
v 0.004125 4.480989 0.192225
vn -0.432911 0.598622 0.703451
v -0.004581 4.478913 0.500202
vn 0.529167 0.756603 0.433748
v 0.004125 4.480990 0.496029
vn 0.711431 0.154510 0.714560
v 0.044893 4.297352 0.498334
vn 0.995805 0.221308 0.000012
v 0.047986 4.283699 -0.086600
vn 0.704737 -0.156719 -0.720686
v 0.125935 -3.932807 -0.499625
vn 0.995807 -0.221296 0.000015
v 0.164003 -3.761536 -0.074993
vn -0.704136 -0.156532 0.721314
v -0.224498 -3.489231 0.499831
vn 0.704250 -0.156639 0.721180
v 0.192755 -3.632182 0.499767
vn 0.704012 -0.156433 0.721457
v 0.278504 -3.246071 0.499946
vn -0.704138 -0.156533 -0.721312
v -0.319069 -3.063591 -0.499902
vn 0.704213 -0.156263 -0.721298
v 0.365991 -2.852103 -0.499840
vn 0.704400 -0.156337 0.721099
v 0.399250 -2.702008 0.499560
vn 0.000045 -0.000151 -1.020100
v 0.023007 -2.683340 -0.499964
vn 0.000008 0.000003 -1.020100
v 0.079438 -1.024575 -0.499950
vn 0.000158 0.000025 -1.020100
v 0.325608 0.292827 -0.499954
vn 0.000077 0.000000 1.020100
v 0.290050 0.567904 0.499950
vn 0.704091 0.156605 -0.721343
v 0.356636 2.894639 -0.499953
vn 0.995808 0.221294 -0.000009
v 0.388740 2.750218 -0.116664
vn 0.704700 0.156524 0.720765
v 0.406358 2.670942 0.499680
vn 0.703792 0.156381 -0.721683
v 0.213553 3.536996 -0.499879
vn 0.704101 0.156517 0.721352
v 0.284068 3.221199 0.499907
vn -0.704116 0.156439 -0.721354
v -0.249850 3.374990 -0.499876
vn 0.995808 0.221295 -0.000149
v 0.233688 3.447980 0.065083
vn 0.995883 0.220953 -0.000368
v 0.177750 3.699673 -0.180390
vn 0.995810 -0.221286 0.000144
v 0.384645 -2.768667 0.124946
vn 0.995817 -0.221249 -0.001483
v 0.470678 -2.381505 -0.223538
vn 0.701959 -0.156592 -0.723420
v 0.486271 -2.305920 -0.499913
vn 0.704185 -0.156585 0.721255
v 0.543951 -2.051715 0.499858
vn 0.704119 -0.156694 -0.721296
v 0.581054 -1.884690 -0.499945
vn 0.703803 -0.156440 -0.721659
v 0.700723 -1.345278 -0.499950
vn 0.995815 -0.221263 -0.000087
v 0.615147 -1.731394 -0.052967
vn 0.000374 0.000018 1.020100
v 0.318427 -1.522964 0.499965
vn 0.000008 -0.000005 -1.020100
v 0.104306 -0.413607 -0.499950
vn 0.000181 -0.000125 1.020100
v 0.379422 -0.883006 0.499955
vn 0.000020 0.000001 -1.020100
v 0.450953 0.943272 -0.499950
vn 0.000701 -0.000001 1.020100
v 0.436798 1.076430 0.499960
vn 0.703897 0.156384 -0.721579
v 0.708489 1.310213 -0.499943
vn 0.000043 0.000012 -1.020100
v 0.145482 1.627658 -0.499950
vn 0.704274 0.156357 -0.721218
v 0.604184 1.780700 -0.499872
vn 0.995837 0.221162 -0.000133
v 0.630418 1.662723 -0.199959
vn 0.704222 0.156353 0.721269
v 0.681844 1.431013 0.499814
vn 0.704142 0.156457 -0.721325
v 0.487692 2.304926 -0.499950
vn 0.001848 0.000607 1.020098
v 0.398084 1.932664 0.499950
vn 0.705086 0.158466 0.719963
v 0.544486 2.049357 0.499228
vn 0.716541 0.146523 0.711129
v 0.489096 2.292333 0.498864
vn 0.708078 0.148783 0.719092
v 0.475444 2.359593 0.499929
vn 0.000250 0.000170 1.020100
v 0.198430 2.448091 0.499959
vn 0.995866 0.221031 0.000628
v 0.469494 2.386827 0.228054
vn 0.995777 -0.221430 -0.000599
v 0.721999 -1.250603 -0.302500
vn 0.704487 -0.156591 0.720959
v 0.718803 -1.264921 0.499613
vn 0.702930 -0.156039 -0.722597
v 0.835888 -0.735528 -0.499929
vn 0.704138 -0.156752 0.721265
v 0.801693 -0.891888 0.499852
vn 0.703397 -0.156124 -0.722123
v 0.952713 -0.210370 -0.499946
vn 0.704153 -0.156481 0.721309
v 0.896948 -0.463271 0.499931
vn 0.995814 -0.221258 -0.001551
v 0.849347 -0.677528 -0.329481
vn 0.704641 0.156329 -0.720865
v 0.924963 0.336248 -0.499459
vn 0.704238 0.156177 -0.721291
v 0.827461 0.775768 -0.499935
vn 0.995833 0.221182 0.000008
v 0.909222 0.408130 0.114757
vn 0.704179 0.156637 0.721250
v 0.903792 0.432166 0.499812
vn 0.705975 0.158100 0.719172
v 0.837769 0.729456 0.499101
vn 0.995805 0.221304 -0.000120
v 0.790066 0.944255 -0.029878
vn 1.020097 0.000324 -0.002248
v 0.999893 -0.000029 -0.304859
vn 0.762605 -0.002112 -0.677519
v 0.998727 -0.002305 -0.499952
vn 0.765047 -0.000102 0.674765
v 0.999771 -0.000407 0.499921
# 152 vertices, 0 vertices normals

f 12//12 7//7 10//10
f 2//2 26//26 27//27
f 4//4 2//2 27//27
f 4//4 27//27 1//1
f 1//1 21//21 3//3
f 6//6 2//2 4//4
f 6//6 5//5 2//2
f 5//5 26//26 2//2
f 1//1 3//3 10//10
f 29//29 10//10 3//3
f 6//6 4//4 7//7
f 7//7 4//4 1//1
f 7//7 1//1 10//10
f 8//8 6//6 7//7
f 6//6 9//9 5//5
f 9//9 6//6 8//8
f 12//12 10//10 13//13
f 16//16 11//11 8//8
f 16//16 8//8 7//7
f 16//16 7//7 12//12
f 14//14 12//12 13//13
f 16//16 12//12 14//14
f 15//15 11//11 16//16
f 11//11 9//9 8//8
f 11//11 15//15 9//9
f 17//17 18//18 15//15
f 17//17 16//16 34//34
f 17//17 15//15 16//16
f 76//76 34//34 14//14
f 34//34 16//16 14//14
f 31//31 18//18 17//17
f 31//31 17//17 33//33
f 17//17 34//34 33//33
f 20//20 19//19 44//44
f 23//23 20//20 44//44
f 22//22 20//20 21//21
f 20//20 22//22 19//19
f 25//25 24//24 22//22
f 25//25 22//22 21//21
f 26//26 24//24 25//25
f 28//28 20//20 23//23
f 45//45 28//28 23//23
f 26//26 25//25 27//27
f 21//21 1//1 27//27
f 27//27 25//25 21//21
f 28//28 3//3 21//21
f 21//21 20//20 28//28
f 29//29 3//3 28//28
f 5//5 102//102 26//26
f 13//13 10//10 29//29
f 46//46 13//13 29//29
f 47//47 14//14 13//13
f 30//30 9//9 15//15
f 47//47 76//76 14//14
f 18//18 30//30 15//15
f 77//77 34//34 76//76
f 31//31 32//32 18//18
f 36//36 33//33 34//34
f 77//77 36//36 34//34
f 35//35 31//31 33//33
f 31//31 35//35 32//32
f 37//37 33//33 36//36
f 39//39 35//35 33//33
f 38//38 35//35 39//39
f 35//35 38//38 32//32
f 49//49 40//40 37//37
f 39//39 33//33 37//37
f 40//40 39//39 37//37
f 38//38 39//39 50//50
f 42//42 41//41 64//64
f 98//98 72//72 41//41
f 64//64 95//95 42//42
f 42//42 98//98 41//41
f 19//19 98//98 42//42
f 101//101 98//98 19//19
f 43//43 42//42 95//95
f 19//19 22//22 101//101
f 19//19 42//42 44//44
f 44//44 42//42 43//43
f 73//73 44//44 43//43
f 22//22 74//74 101//101
f 73//73 23//23 44//44
f 74//74 22//22 24//24
f 73//73 45//45 23//23
f 26//26 102//102 24//24
f 45//45 29//29 28//28
f 5//5 121//121 102//102
f 46//46 29//29 45//45
f 9//9 121//121 5//5
f 46//46 47//47 13//13
f 18//18 48//48 30//30
f 32//32 48//48 18//18
f 38//38 126//126 32//32
f 49//49 37//37 36//36
f 49//49 36//36 77//77
f 78//78 49//49 135//135
f 50//50 39//39 40//40
f 78//78 40//40 49//49
f 110//110 50//50 51//51
f 50//50 105//105 38//38
f 110//110 105//105 50//50
f 51//51 50//50 40//40
f 52//52 51//51 40//40
f 78//78 52//52 40//40
f 53//53 110//110 51//51
f 51//51 52//52 54//54
f 109//109 54//54 52//52
f 53//53 51//51 54//54
f 79//79 110//110 53//53
f 79//79 53//53 81//81
f 81//81 53//53 54//54
f 55//55 69//69 56//56
f 55//55 56//56 61//61
f 56//56 57//57 61//61
f 57//57 59//59 61//61
f 56//56 59//59 57//57
f 56//56 58//58 59//59
f 59//59 58//58 60//60
f 69//69 58//58 56//56
f 58//58 69//69 60//60
f 55//55 61//61 65//65
f 55//55 65//65 64//64
f 59//59 62//62 61//61
f 61//61 62//62 65//65
f 59//59 60//60 62//62
f 60//60 94//94 62//62
f 62//62 67//67 65//65
f 62//62 70//70 67//67
f 62//62 94//94 70//70
f 65//65 63//63 64//64
f 63//63 65//65 66//66
f 67//67 66//66 65//65
f 67//67 70//70 66//66
f 70//70 63//63 66//66
f 55//55 68//68 71//71
f 71//71 69//69 55//55
f 71//71 93//93 69//69
f 69//69 93//93 60//60
f 60//60 93//93 94//94
f 68//68 55//55 64//64
f 95//95 64//64 63//63
f 96//96 95//95 63//63
f 70//70 96//96 63//63
f 68//68 41//41 71//71
f 41//41 68//68 64//64
f 72//72 93//93 71//71
f 41//41 72//72 71//71
f 73//73 43//43 97//97
f 120//120 45//45 73//73
f 122//122 46//46 45//45
f 9//9 30//30 121//121
f 75//75 47//47 46//46
f 104//104 47//47 75//75
f 48//48 103//103 30//30
f 104//104 76//76 47//47
f 124//124 76//76 104//104
f 77//77 76//76 124//124
f 32//32 126//126 48//48
f 105//105 130//130 38//38
f 78//78 109//109 52//52
f 82//82 81//81 54//54
f 83//83 82//82 54//54
f 83//83 54//54 109//109
f 85//85 80//80 79//79
f 80//80 108//108 79//79
f 85//85 86//86 80//80
f 80//80 86//86 92//92
f 91//91 82//82 83//83
f 92//92 91//91 83//83
f 85//85 79//79 84//84
f 84//84 79//79 81//81
f 86//86 85//85 84//84
f 84//84 81//81 87//87
f 86//86 84//84 87//87
f 88//88 86//86 87//87
f 92//92 86//86 88//88
f 87//87 81//81 82//82
f 87//87 82//82 89//89
f 91//91 89//89 82//82
f 90//90 88//88 87//87
f 90//90 87//87 89//89
f 91//91 88//88 90//90
f 91//91 90//90 89//89
f 91//91 92//92 88//88
f 93//93 72//72 94//94
f 94//94 96//96 70//70
f 94//94 97//97 96//96
f 97//97 43//43 95//95
f 96//96 97//97 95//95
f 98//98 101//101 99//99
f 98//98 99//99 72//72
f 72//72 113//113 94//94
f 99//99 113//113 72//72
f 94//94 113//113 97//97
f 100//100 73//73 97//97
f 97//97 113//113 100//100
f 74//74 115//115 101//101
f 101//101 115//115 99//99
f 100//100 116//116 73//73
f 24//24 117//117 74//74
f 74//74 117//117 115//115
f 120//120 73//73 116//116
f 102//102 117//117 24//24
f 122//122 45//45 120//120
f 30//30 103//103 121//121
f 48//48 123//123 103//103
f 126//126 123//123 48//48
f 129//129 77//77 124//124
f 131//131 49//49 77//77
f 135//135 49//49 131//131
f 38//38 130//130 126//126
f 106//106 105//105 111//111
f 130//130 105//105 106//106
f 106//106 109//109 107//107
f 109//109 78//78 135//135
f 109//109 135//135 107//107
f 108//108 105//105 110//110
f 105//105 108//108 111//111
f 109//109 106//106 111//111
f 79//79 108//108 110//110
f 108//108 112//112 111//111
f 111//111 112//112 83//83
f 109//109 111//111 83//83
f 112//112 108//108 80//80
f 112//112 92//92 83//83
f 80//80 92//92 112//112
f 99//99 114//114 113//113
f 99//99 115//115 114//114
f 114//114 116//116 113//113
f 113//113 116//116 100//100
f 114//114 115//115 117//117
f 114//114 119//119 116//116
f 119//119 117//117 118//118
f 117//117 119//119 114//114
f 117//117 102//102 118//118
f 118//118 137//137 119//119
f 119//119 138//138 116//116
f 138//138 120//120 116//116
f 138//138 122//122 120//120
f 139//139 102//102 121//121
f 102//102 139//139 118//118
f 138//138 140//140 122//122
f 121//121 103//103 141//141
f 75//75 46//46 122//122
f 152//152 104//104 75//75
f 152//152 147//147 104//104
f 123//123 145//145 103//103
f 124//124 104//104 147//147
f 123//123 125//125 145//145
f 123//123 126//126 125//125
f 130//130 127//127 126//126
f 127//127 125//125 126//126
f 125//125 127//127 128//128
f 128//128 132//132 129//129
f 131//131 77//77 129//129
f 132//132 131//131 129//129
f 128//128 127//127 130//130
f 130//130 106//106 136//136
f 130//130 136//136 132//132
f 128//128 130//130 132//132
f 131//131 134//134 135//135
f 134//134 107//107 135//135
f 107//107 134//134 136//136
f 133//133 134//134 131//131
f 133//133 131//131 132//132
f 133//133 132//132 136//136
f 136//136 134//134 133//133
f 136//136 106//106 107//107
f 119//119 137//137 138//138
f 118//118 143//143 137//137
f 118//118 139//139 143//143
f 137//137 143//143 140//140
f 137//137 140//140 138//138
f 140//140 143//143 142//142
f 121//121 141//141 139//139
f 139//139 141//141 143//143
f 142//142 122//122 140//140
f 141//141 150//150 143//143
f 143//143 150//150 142//142
f 142//142 75//75 122//122
f 152//152 75//75 142//142
f 103//103 151//151 141//141
f 103//103 144//144 151//151
f 145//145 144//144 103//103
f 144//144 145//145 149//149
f 146//146 144//144 149//149
f 146//146 148//148 147//147
f 145//145 125//125 149//149
f 147//147 148//148 124//124
f 149//149 129//129 148//148
f 146//146 149//149 148//148
f 149//149 128//128 129//129
f 129//129 124//124 148//148
f 125//125 128//128 149//149
f 141//141 151//151 150//150
f 144//144 150//150 151//151
f 150//150 146//146 152//152
f 152//152 142//142 150//150
f 152//152 146//146 147//147
f 150//150 144//144 146//146
# 300 faces, 0 coords texture

# End of File
